<svg width="432.59375px" height="108.8px" xmlns="http://www.w3.org/2000/svg" viewBox="33.703125 20.6 432.59375 108.8" style="background:#051103" preserveAspectRatio="xMidYMid"><defs><linearGradient id="editing-glowing-gradient" x1="0.8146601955249185" x2="0.18533980447508147" y1="0.8885729807284856" y2="0.11142701927151444"><stop offset="0" stop-color="#67ff43"></stop><stop offset="1" stop-color="#90ffff"></stop></linearGradient><filter id="editing-glowing" x="-100%" y="-100%" width="300%" height="300%"><feGaussianBlur in="SourceGraphic" result="blur" stdDeviation="10"></feGaussianBlur><feMerge><feMergeNode in="blur"></feMergeNode><feMergeNode in="SourceGraphic"></feMergeNode></feMerge></filter></defs><g filter="url(#editing-glowing)"><g transform="translate(97.95997405052185, 94.63000297546387)"><path d="M23.63-18.03L34.94-19.04L34.94-19.04Q30.91-10.19 30.91 0.06L30.91 0.06L30.91 0.06Q29.40 1.12 27.19 1.12L27.19 1.12L27.19 1.12Q24.98 1.12 23.58 0.08L23.58 0.08L23.58 0.08Q22.18-0.95 21.90-2.02L21.90-2.02L21.90-2.02Q20.50-0.56 18.23 0.28L18.23 0.28L18.23 0.28Q15.96 1.12 13.55 1.12L13.55 1.12L13.55 1.12Q11.14 1.12 9.04 0.34L9.04 0.34L9.04 0.34Q6.94-0.45 5.32-2.18L5.32-2.18L5.32-2.18Q1.74-5.99 1.74-13.22L1.74-13.22L1.74-13.22Q1.74-24.42 7.73-31.14L7.73-31.14L7.73-31.14Q13.89-38.08 24.81-38.08L24.81-38.08L24.81-38.08Q32.37-38.08 35.06-34.16L35.06-34.16L35.06-34.16Q35.90-32.93 35.90-31.44L35.90-31.44L35.90-31.44Q35.90-29.96 35.25-28.70L35.25-28.70L35.25-28.70Q34.61-27.44 33.60-26.43L33.60-26.43L33.60-26.43Q31.19-24.19 28.22-24.19L28.22-24.19L28.22-24.19Q27.05-24.19 25.93-24.58L25.93-24.58L25.93-24.58Q26.15-26.26 26.15-28.22L26.15-28.22L26.15-28.22Q26.15-30.18 26.01-31.08L26.01-31.08L26.01-31.08Q25.87-31.98 25.54-32.70L25.54-32.70L25.54-32.70Q24.81-34.22 23.21-34.22L23.21-34.22L23.21-34.22Q21.62-34.22 19.85-32.51L19.85-32.51L19.85-32.51Q18.09-30.80 16.69-28L16.69-28L16.69-28Q13.61-21.73 13.61-14.17L13.61-14.17L13.61-14.17Q13.61-10.70 14.95-8.23L14.95-8.23L14.95-8.23Q16.41-5.54 18.98-5.54L18.98-5.54L18.98-5.54Q19.88-5.54 20.69-5.99L20.69-5.99L20.69-5.99Q21.50-6.44 21.84-6.78L21.84-6.78L23.63-18.03ZM62.27 1.12L62.27 1.12L62.27 1.12Q55.10 1.12 54.43-9.07L54.43-9.07L44.80-9.07L44.80-9.07Q43.68-6.50 42.90-4.26L42.90-4.26L41.44 0L33.60 0L51.24-36.96L63.28-36.96L65.63-9.74L65.63-9.74Q66.19-3.86 68.43-2.13L68.43-2.13L68.43-2.13Q66.81 1.12 62.27 1.12ZM49.62-20.27L46.54-13.16L54.26-13.16L53.59-27.55L53.59-29.06L49.62-20.27ZM76.44 0L70.00 0L80.14-36.96L91.84-36.96L94.42-15.85L104.83-36.96L114.63-36.96L115.64-9.30L115.64-9.30Q115.86-3.81 118.55-2.13L118.55-2.13L118.55-2.13Q117.94-1.01 116.14 0.06L116.14 0.06L116.14 0.06Q114.35 1.12 111.97 1.12L111.97 1.12L111.97 1.12Q109.59 1.12 108.19 0.45L108.19 0.45L108.19 0.45Q106.79-0.22 106.01-1.34L106.01-1.34L106.01-1.34Q104.61-3.36 104.61-7.22L104.61-7.22L104.61-24.53L93.58 0L86.63 0L82.71-25.14L76.44 0ZM144.87-8.62L144.87-8.62L144.87-8.62Q145.94-7.28 145.94-5.10L145.94-5.10L145.94-5.10Q145.94-2.07 143.70-0.48L143.70-0.48L143.70-0.48Q141.46 1.12 137.93 1.12L137.93 1.12L137.93 1.12Q135.91 1.12 132.83 0.67L132.83 0.67L132.83 0.67Q126.78-0.28 124.94-0.28L124.94-0.28L124.94-0.28Q123.09-0.28 122.36-0.20L122.36-0.20L122.36-0.20Q121.63-0.11 120.46 0L120.46 0L127.34-36.96L151.48-36.96L151.48-36.96Q151.48-33.54 149.83-31.75L149.83-31.75L149.83-31.75Q148.18-29.96 144.93-29.96L144.93-29.96L144.93-29.96Q141.68-29.96 138.38-31.47L138.38-31.47L136.64-21.67L146.61-21.67L146.61-21.67Q146.61-18.70 145.15-17.05L145.15-17.05L145.15-17.05Q143.70-15.40 141.26-15.40L141.26-15.40L141.26-15.40Q138.82-15.40 137.31-15.96L137.31-15.96L137.31-15.96Q135.80-16.52 135.63-16.69L135.63-16.69L133.62-6.10L133.62-6.10Q134.96-5.94 137.48-5.94L137.48-5.94L137.48-5.94Q141.79-5.94 144.87-8.62ZM163.46-13.66L163.46-13.66L163.46-13.66Q163.46-24.25 168.95-30.91L168.95-30.91L168.95-30.91Q174.78-38.14 184.91-38.14L184.91-38.14L184.91-38.14Q192.25-38.14 195.94-34.58L195.94-34.58L195.94-34.58Q199.64-31.02 199.64-23.52L199.64-23.52L199.64-23.52Q199.64-12.10 193.82-5.43L193.82-5.43L193.82-5.43Q188.05 1.12 178.36 1.12L178.36 1.12L178.36 1.12Q170.80 1.12 167.13-2.66L167.13-2.66L167.13-2.66Q163.46-6.44 163.46-13.66ZM178.19-25.26L178.19-25.26L178.19-25.26Q175.67-15.18 175.67-7.22L175.67-7.22L175.67-7.22Q175.67-5.32 176.32-4.09L176.32-4.09L176.32-4.09Q176.96-2.86 178.67-2.86L178.67-2.86L178.67-2.86Q180.38-2.86 181.44-3.67L181.44-3.67L181.44-3.67Q182.50-4.48 183.34-6.33L183.34-6.33L183.34-6.33Q184.69-9.35 185.95-15.76L185.95-15.76L185.95-15.76Q187.21-22.18 187.32-24.84L187.32-24.84L187.32-24.84Q187.43-27.50 187.43-29.51L187.43-29.51L187.43-29.51Q187.43-31.53 186.82-32.82L186.82-32.82L186.82-32.82Q186.20-34.10 184.55-34.10L184.55-34.10L184.55-34.10Q182.90-34.10 181.78-33.10L181.78-33.10L181.78-33.10Q179.70-31.19 178.19-25.26ZM203.78-34.72L203.78-34.72L203.78-34.72Q205.41-38.08 209.92-38.08L209.92-38.08L209.92-38.08Q214.42-38.08 216.52-35.48L216.52-35.48L216.52-35.48Q218.62-32.87 218.62-26.88L218.62-26.88L218.62-6.89L232.23-36.90L238.90-36.90L221.48 0L208.38 0L206.70-26.88L206.70-26.88Q206.53-29.85 205.72-31.86L205.72-31.86L205.72-31.86Q204.90-33.88 203.78-34.72ZM260.57-8.62L260.57-8.62L260.57-8.62Q261.63-7.28 261.63-5.10L261.63-5.10L261.63-5.10Q261.63-2.07 259.39-0.48L259.39-0.48L259.39-0.48Q257.15 1.12 253.62 1.12L253.62 1.12L253.62 1.12Q251.61 1.12 248.53 0.67L248.53 0.67L248.53 0.67Q242.48-0.28 240.63-0.28L240.63-0.28L240.63-0.28Q238.78-0.28 238.06-0.20L238.06-0.20L238.06-0.20Q237.33-0.11 236.15 0L236.15 0L243.04-36.96L267.18-36.96L267.18-36.96Q267.18-33.54 265.52-31.75L265.52-31.75L265.52-31.75Q263.87-29.96 260.62-29.96L260.62-29.96L260.62-29.96Q257.38-29.96 254.07-31.47L254.07-31.47L252.34-21.67L262.30-21.67L262.30-21.67Q262.30-18.70 260.85-17.05L260.85-17.05L260.85-17.05Q259.39-15.40 256.96-15.40L256.96-15.40L256.96-15.40Q254.52-15.40 253.01-15.96L253.01-15.96L253.01-15.96Q251.50-16.52 251.33-16.69L251.33-16.69L249.31-6.10L249.31-6.10Q250.66-5.94 253.18-5.94L253.18-5.94L253.18-5.94Q257.49-5.94 260.57-8.62ZM278.26 0L266.28 0L273.11-36.79L273.11-36.79Q278.66-37.41 286.75-37.41L286.75-37.41L286.75-37.41Q294.84-37.41 298.59-35.06L298.59-35.06L298.59-35.06Q302.34-32.70 302.34-27.97L302.34-27.97L302.34-27.97Q302.34-23.24 299.91-20.27L299.91-20.27L299.91-20.27Q297.47-17.30 293.27-16.35L293.27-16.35L293.27-16.35Q294.22-11.70 296.41-7.95L296.41-7.95L296.41-7.95Q298.42-4.42 300.78-3.30L300.78-3.30L300.78-3.30Q299.94-0.95 298.23 0.08L298.23 0.08L298.23 0.08Q296.52 1.12 294.08 1.12L294.08 1.12L294.08 1.12Q291.65 1.12 289.74-0.31L289.74-0.31L289.74-0.31Q287.84-1.74 286.33-4.37L286.33-4.37L286.33-4.37Q283.14-10.08 282.80-19.10L282.80-19.10L283.19-19.10L283.19-19.10Q287.34-19.21 289.41-21.36L289.41-21.36L289.41-21.36Q291.48-23.52 291.48-28.06L291.48-28.06L291.48-28.06Q291.48-33.71 286.72-33.94L286.72-33.94L285.49-33.94L285.49-33.94Q284.98-33.94 284.70-33.88L284.70-33.88L278.26 0Z" fill="url(#editing-glowing-gradient)"></path></g></g><style>text {
  font-size: 64px;
  font-family: Arial Black;
  dominant-baseline: central;
  text-anchor: middle;
}</style></svg>